# xmcd
#
# Track frame offsets: 
#        183
#        31593
#        57680
#        77478
#        93263
#        111728
#        134508
#        172665
#
# Disc length: 2420 seconds
#
# Revision: 10
# Processed by: cddbd v1.5.2PL0 Copyright (c) Steve Scherf et al.
# Submitted via: ExactAudioCopy v0.99pb5
#
DISCID=61097208
DTITLE=Vangelis - Cosmos, CD 2
DYEAR=2001
DGENRE=Electronic
TTITLE0=Spiral
TTITLE1=Alpha
TTITLE2=Albedo 0.39
TTITLE3=A Way
TTITLE4=Theme From The TV Series "Cosmos" (Heaven And Hell, 3rd Moveme
TTITLE4=nt)
TTITLE5=So Long Ago, So Clear (with Jon Anderson)
TTITLE6=Ballad
TTITLE7=Sword Of Orion
EXTD=YEAR: 2001
EXTT0=
EXTT1=
EXTT2=
EXTT3=
EXTT4=
EXTT5=
EXTT6=
EXTT7=
PLAYORDER=
